<?xml version="1.0" standalone="no"?>
<!DOCTYPE svg PUBLIC "-//W3C//DTD SVG 20010904//EN"
 "http://www.w3.org/TR/2001/REC-SVG-20010904/DTD/svg10.dtd">
<svg version="1.0" xmlns="http://www.w3.org/2000/svg"
 width="2262.000000pt" height="1326.000000pt" viewBox="0 0 2262.000000 1326.000000"
 preserveAspectRatio="xMidYMid meet">

<g transform="translate(0.000000,1326.000000) scale(0.100000,-0.100000)"
fill="#000000" stroke="none">
<path d="M4790 11420 c0 -5 5 -10 10 -10 6 0 10 5 10 10 0 6 -4 10 -10 10 -5
0 -10 -4 -10 -10z"/>
<path d="M6346 11136 c3 -9 11 -16 16 -16 13 0 5 23 -10 28 -7 2 -10 -2 -6
-12z"/>
<path d="M7545 10978 c-97 -50 -221 -155 -293 -248 -22 -28 -68 -135 -84 -195
-6 -22 -12 -121 -12 -220 -1 -161 1 -183 18 -212 11 -18 32 -37 47 -43 24 -10
37 -7 108 31 86 45 177 126 231 206 42 62 124 227 143 288 26 86 29 154 8 254
-24 113 -59 173 -99 171 -4 -1 -34 -15 -67 -32z"/>
<path d="M3279 10752 l-33 -30 0 -183 c-1 -167 1 -188 21 -231 48 -105 155
-236 216 -264 18 -8 47 -26 65 -39 31 -22 37 -23 65 -12 17 7 38 24 48 37 21
28 54 209 46 249 -14 68 -45 178 -56 199 -7 13 -19 46 -27 73 -27 88 -168 204
-275 224 -32 6 -41 3 -70 -23z"/>
<path d="M8380 9981 c0 -6 5 -13 10 -16 6 -3 10 1 10 9 0 9 -4 16 -10 16 -5 0
-10 -4 -10 -9z"/>
<path d="M9055 9117 c-89 -35 -183 -124 -227 -213 -17 -35 -51 -84 -75 -108
-45 -46 -59 -80 -84 -206 -11 -51 -9 -62 15 -130 37 -102 59 -119 146 -112 57
4 72 9 119 46 98 74 150 134 201 231 30 57 30 58 30 220 0 166 -7 206 -42 258
-21 29 -37 32 -83 14z"/>
<path d="M1465 8628 c-45 -16 -65 -38 -65 -70 0 -62 42 -194 83 -263 52 -86
224 -265 255 -265 12 0 51 -11 88 -25 36 -14 82 -25 100 -25 19 0 53 -5 76
-11 38 -11 48 -9 85 10 35 17 44 28 54 64 23 85 3 151 -94 322 -54 94 -237
235 -342 264 -50 14 -200 13 -240 -1z"/>
<path d="M9607 8364 c-8 -8 3 -34 14 -34 5 0 9 9 9 20 0 19 -11 26 -23 14z"/>
<path d="M12040 8001 c0 -18 6 -21 40 -21 54 0 104 -22 127 -56 17 -26 18 -62
18 -584 0 -522 -1 -558 -18 -584 -23 -34 -73 -56 -127 -56 -34 0 -40 -3 -40
-21 l0 -21 423 4 c390 4 428 6 499 26 150 41 255 117 299 215 35 76 33 193 -3
263 -46 88 -116 137 -267 184 l-85 27 80 27 c95 33 147 67 190 124 104 136 32
359 -141 438 -91 42 -134 46 -572 51 l-423 5 0 -21z m708 -76 c54 -22 116 -92
132 -150 20 -72 9 -193 -23 -247 -47 -80 -146 -128 -264 -128 l-53 0 0 276 0
277 83 -5 c45 -3 101 -14 125 -23z m31 -625 c92 -40 148 -128 158 -248 15
-183 -107 -322 -283 -322 -48 0 -59 4 -85 29 l-29 29 0 273 0 272 94 -6 c64
-3 109 -12 145 -27z"/>
<path d="M13150 8000 c0 -17 7 -20 45 -20 56 0 107 -20 129 -51 14 -21 16 -82
16 -581 0 -337 -4 -567 -10 -582 -15 -39 -66 -66 -127 -66 -46 0 -53 -3 -53
-20 0 -20 7 -20 605 -20 573 0 605 1 605 18 0 26 39 411 45 450 5 27 3 32 -13
32 -16 0 -26 -19 -53 -97 -39 -113 -96 -204 -157 -250 -68 -51 -124 -63 -300
-63 l-154 0 -29 29 -29 29 0 549 c0 602 -3 576 60 608 16 8 54 15 85 15 48 0
55 2 55 20 0 20 -7 20 -360 20 -353 0 -360 0 -360 -20z"/>
<path d="M14290 8000 c0 -17 7 -20 45 -20 53 0 99 -21 117 -53 10 -17 14 -137
18 -492 6 -508 7 -511 64 -609 46 -78 152 -149 266 -177 31 -7 108 -13 175
-13 189 0 293 37 395 138 114 112 121 150 127 681 5 469 5 466 74 504 34 20
44 21 69 11 15 -6 39 -23 52 -37 l23 -25 3 -496 c4 -584 1 -631 -38 -675 -24
-27 -35 -31 -94 -35 -56 -4 -66 -7 -66 -23 0 -18 19 -19 590 -19 402 0 590 3
590 10 0 16 50 372 55 398 4 17 1 22 -14 22 -13 0 -22 -12 -31 -45 -14 -49
-67 -145 -103 -184 -12 -13 -48 -41 -80 -62 -81 -53 -172 -72 -321 -67 -171 5
-160 -16 -164 313 l-3 265 38 0 c133 0 227 -102 249 -269 5 -41 10 -51 25 -51
18 0 19 15 19 355 0 335 -1 355 -18 355 -14 0 -20 -13 -29 -67 -7 -38 -27 -97
-45 -133 -29 -57 -40 -68 -87 -92 -37 -19 -70 -28 -103 -28 l-48 0 0 276 0
276 168 -4 c158 -3 170 -5 227 -31 99 -46 141 -99 175 -222 11 -39 23 -61 34
-63 14 -3 16 16 16 202 l0 206 -720 0 c-695 0 -720 -1 -720 -19 0 -15 10 -19
56 -24 62 -6 95 -24 121 -64 16 -25 18 -63 18 -443 0 -436 -4 -490 -47 -573
-27 -53 -92 -115 -147 -140 -58 -26 -192 -35 -247 -17 -70 23 -120 65 -151
127 l-28 58 0 497 0 498 27 27 c24 23 38 28 98 31 61 4 70 7 70 23 0 18 -14
19 -350 19 -343 0 -350 0 -350 -20z"/>
<path d="M16860 8000 c0 -11 7 -20 15 -20 9 0 30 -7 47 -16 41 -21 77 -102
349 -776 169 -421 228 -558 241 -558 12 0 59 100 183 393 92 215 177 414 188
441 l22 49 169 -442 c133 -346 173 -441 187 -441 9 0 19 6 22 13 2 6 101 266
220 577 260 680 263 689 290 718 26 28 38 28 68 -4 l24 -26 3 -496 c4 -584 1
-631 -38 -675 -24 -27 -35 -31 -94 -35 -57 -4 -66 -7 -66 -24 0 -19 18 -19
993 -16 980 4 993 4 1069 25 151 43 255 118 299 216 35 76 33 193 -3 263 -46
88 -116 137 -267 184 l-85 27 80 27 c95 33 147 67 190 124 104 136 32 359
-141 438 -103 48 -93 47 -1222 51 l-1073 4 0 -21 c0 -15 6 -20 25 -20 80 0
123 -56 105 -135 -11 -48 -263 -715 -270 -715 -4 0 -278 710 -294 763 -8 25
12 63 41 76 13 6 42 11 63 11 33 0 40 3 40 20 0 20 -7 20 -330 20 -323 0 -330
0 -330 -20 0 -16 7 -20 31 -20 54 0 98 -29 129 -84 31 -54 120 -268 120 -288
0 -17 -204 -508 -211 -508 -8 0 -15 18 -181 429 -72 178 -133 342 -135 365 -6
51 16 75 76 83 31 4 41 10 41 24 0 18 -14 19 -295 19 -288 0 -295 0 -295 -20z
m3085 -34 c18 -8 42 -27 52 -42 17 -26 18 -62 18 -584 0 -622 3 -595 -72 -626
-72 -31 -72 -30 -47 156 13 91 25 177 28 193 4 21 2 27 -13 27 -13 0 -22 -13
-31 -45 -14 -49 -67 -145 -103 -184 -12 -13 -48 -41 -80 -62 -81 -53 -172 -72
-321 -67 -171 5 -160 -16 -164 313 l-3 265 38 0 c133 0 227 -102 249 -269 5
-41 10 -51 25 -51 18 0 19 15 19 355 0 335 -1 355 -18 355 -14 0 -20 -13 -29
-67 -7 -38 -27 -97 -45 -133 -29 -57 -40 -68 -87 -92 -37 -19 -70 -28 -103
-28 l-48 0 0 276 0 276 168 -4 c158 -3 170 -5 227 -31 99 -46 141 -99 175
-222 11 -39 23 -61 34 -63 14 -3 16 15 16 182 l0 186 40 0 c22 0 56 -6 75 -14z
m593 -41 c54 -22 116 -92 132 -150 20 -72 9 -193 -23 -247 -47 -80 -146 -128
-264 -128 l-53 0 0 276 0 277 83 -5 c45 -3 101 -14 125 -23z m31 -625 c92 -40
148 -128 158 -248 15 -183 -107 -322 -283 -322 -48 0 -59 4 -85 29 l-29 29 0
273 0 272 94 -6 c64 -3 109 -12 145 -27z"/>
<path d="M7301 7944 c0 -11 3 -14 6 -6 3 7 2 16 -1 19 -3 4 -6 -2 -5 -13z"/>
<path d="M4306 7597 c-16 -12 -18 -26 -14 -108 4 -112 13 -134 162 -404 513
-933 843 -1860 858 -2410 4 -168 0 -203 -26 -220 -24 -16 -29 -14 -158 58 -73
40 -146 80 -163 89 -16 8 -118 58 -225 112 -195 98 -227 113 -330 159 -30 14
-85 39 -122 56 -37 17 -71 31 -75 31 -4 0 -30 12 -58 25 -27 14 -56 25 -63 25
-7 0 -29 8 -50 19 -46 23 -336 121 -457 154 -49 14 -124 30 -165 36 -41 7 -99
16 -128 21 -55 10 -76 6 -104 -18 -56 -48 22 -147 267 -342 208 -165 259 -210
483 -425 301 -288 664 -733 896 -1098 22 -34 58 -91 81 -127 121 -188 319
-580 409 -810 21 -52 48 -120 61 -150 51 -118 44 -158 -38 -219 -82 -63 -196
-92 -561 -147 -55 -8 -125 -21 -155 -28 -31 -8 -87 -19 -126 -25 -101 -17
-289 -58 -365 -81 -36 -11 -71 -20 -78 -20 -23 0 -238 -77 -308 -110 -127 -61
-175 -129 -123 -176 45 -40 248 -13 449 60 68 25 176 54 295 80 274 59 456 93
600 111 72 9 155 21 185 27 36 8 232 13 560 15 278 1 543 5 590 7 47 2 248 8
446 12 375 7 454 3 769 -41 55 -7 138 -19 185 -26 47 -6 121 -20 165 -30 44
-9 114 -22 155 -28 99 -15 343 -59 400 -72 25 -6 106 -21 180 -35 144 -25 228
-42 380 -75 138 -30 243 -36 275 -15 41 27 34 66 -20 104 -25 18 -48 32 -51
32 -3 0 -18 8 -32 19 -27 19 -124 61 -197 86 -22 8 -83 30 -135 50 -52 20
-122 45 -155 55 -33 10 -73 25 -90 34 -16 9 -37 16 -45 16 -16 0 -180 53 -250
80 -25 10 -65 21 -90 25 -25 4 -53 11 -62 16 -32 17 -321 86 -448 108 -69 12
-149 20 -179 19 -45 -2 -56 1 -72 21 -10 13 -19 37 -19 53 0 36 58 212 104
318 18 41 45 104 61 140 92 216 248 505 366 680 362 536 686 948 987 1254 210
212 377 345 508 401 33 14 70 31 84 37 49 21 73 36 127 78 74 60 84 108 26
131 -42 17 -341 4 -390 -16 -21 -9 -63 -22 -93 -30 -94 -22 -395 -115 -515
-159 -141 -51 -244 -91 -360 -140 -75 -31 -255 -124 -275 -141 -8 -7 -30 -20
-48 -29 -17 -9 -67 -45 -110 -80 -78 -63 -305 -206 -328 -206 -7 0 -20 8 -30
17 -13 14 -15 28 -10 72 3 31 15 135 25 231 11 96 24 190 30 209 6 19 15 70
21 115 16 122 59 303 143 611 54 198 153 484 208 601 10 22 19 44 19 49 0 4 9
26 19 49 11 23 31 68 47 101 55 122 164 336 204 401 22 36 40 68 40 70 0 2 34
57 75 123 42 66 82 136 90 155 21 49 19 105 -5 144 -28 45 -68 44 -146 -7 -42
-28 -75 -61 -116 -118 -46 -65 -215 -357 -365 -633 -14 -25 -28 -49 -33 -55
-4 -5 -33 -59 -65 -120 -32 -60 -66 -121 -75 -135 -10 -14 -37 -63 -62 -110
-25 -47 -70 -132 -100 -190 -31 -58 -72 -148 -92 -200 -20 -52 -45 -115 -55
-140 -11 -25 -28 -72 -39 -105 -11 -33 -35 -100 -52 -150 -18 -49 -38 -110
-46 -135 -7 -25 -29 -92 -49 -150 -20 -58 -45 -134 -55 -170 -11 -36 -33 -110
-50 -165 -130 -428 -242 -918 -276 -1215 -35 -312 -89 -682 -160 -1094 -17
-100 -56 -241 -78 -283 -34 -66 -81 -90 -118 -60 -68 53 -143 313 -182 632
-38 299 -57 443 -66 475 -5 19 -16 85 -25 145 -8 61 -24 153 -35 205 -10 52
-33 167 -50 255 -17 88 -42 207 -55 265 -14 58 -25 114 -25 124 0 11 -7 42
-15 70 -8 28 -40 155 -71 281 -153 626 -343 1193 -518 1553 -20 40 -36 75 -36
78 0 8 -151 277 -198 354 -23 36 -62 101 -88 145 -27 44 -117 183 -201 309
-207 308 -365 503 -460 565 -53 35 -53 35 -77 18z"/>
<path d="M1807 6973 c-4 -3 -7 -14 -7 -23 0 -14 13 -18 67 -23 46 -5 73 -13
88 -27 12 -11 33 -20 47 -20 18 0 34 -10 48 -30 16 -22 29 -30 51 -30 25 0 50
-19 140 -107 95 -94 109 -112 109 -140 0 -40 -17 -43 -50 -8 -16 17 -34 25
-57 25 -37 0 -65 12 -93 40 -11 11 -27 16 -42 13 -16 -3 -34 4 -54 20 -18 15
-48 27 -81 32 -29 4 -57 13 -64 21 -15 18 -43 18 -59 -1 -16 -20 -27 -19 -57
5 -14 11 -29 17 -34 14 -17 -10 -68 7 -105 37 -20 16 -48 29 -61 29 -18 0 -28
9 -39 36 -8 20 -27 49 -42 65 -25 26 -30 28 -62 19 -29 -8 -41 -19 -63 -63
-30 -61 -33 -86 -13 -125 7 -15 19 -54 27 -87 11 -51 30 -100 68 -175 17 -31
220 -199 286 -235 109 -61 185 -77 378 -82 153 -5 173 -3 236 17 38 12 93 36
122 54 54 32 54 33 53 82 -1 90 -144 344 -251 445 -57 55 -156 118 -274 177
-85 42 -116 52 -156 52 -27 0 -53 -3 -56 -7z"/>
<path d="M1586 6955 c-8 -21 29 -39 54 -25 27 14 14 40 -20 40 -15 0 -30 -7
-34 -15z"/>
<path d="M10438 6925 c-32 -31 -55 -45 -74 -45 -14 0 -52 -11 -83 -24 -31 -13
-76 -29 -101 -35 -25 -7 -67 -19 -95 -27 -66 -19 -432 -202 -439 -219 -3 -8
-19 -21 -36 -30 -42 -22 -166 -149 -189 -193 -31 -61 -33 -79 -16 -116 13 -27
29 -40 78 -60 82 -34 130 -43 267 -51 158 -9 303 6 367 38 83 42 223 143 309
222 81 73 184 210 184 243 0 10 7 29 14 44 20 38 32 208 17 236 -13 25 -59 47
-117 56 -36 6 -42 3 -86 -39z"/>
<path d="M8465 6320 c-177 -39 -320 -153 -386 -307 -103 -242 6 -505 261 -631
l75 -37 145 0 145 0 75 38 c100 51 149 93 198 169 108 168 111 375 8 536 -33
51 -121 134 -176 166 -99 56 -255 86 -345 66z"/>
<path d="M4225 6166 c-85 -18 -140 -43 -212 -93 -214 -151 -271 -438 -132
-659 74 -117 196 -199 338 -230 84 -18 123 -17 210 1 142 30 277 123 345 238
32 56 75 196 76 246 0 51 -38 178 -73 244 -18 35 -57 83 -98 121 -124 115
-298 165 -454 132z"/>
<path d="M12344 6161 c-57 -15 -123 -52 -153 -87 -56 -64 -75 -112 -75 -194
-1 -66 3 -82 30 -130 42 -74 115 -131 274 -214 195 -101 237 -145 228 -238 -9
-90 -87 -144 -197 -136 -71 5 -138 37 -196 94 -46 45 -100 142 -111 202 -4 18
-12 32 -20 32 -11 0 -14 -35 -14 -190 0 -162 2 -190 15 -190 8 0 15 4 15 9 0
18 50 61 72 61 13 0 57 -14 98 -32 64 -27 87 -32 160 -32 154 -1 261 58 320
178 29 59 32 72 29 138 -8 144 -72 215 -298 331 -148 77 -204 116 -231 160
-55 89 22 197 141 197 127 0 244 -95 285 -232 11 -36 23 -58 32 -58 12 0 14
23 10 145 l-5 145 24 0 c19 0 76 -22 85 -33 1 -1 4 -166 8 -367 7 -413 10
-430 84 -505 56 -56 122 -86 218 -98 177 -24 338 32 411 142 46 70 50 98 56
458 l6 343 27 26 c36 37 83 37 115 0 l23 -27 0 -419 0 -419 -23 -26 c-17 -20
-35 -28 -70 -32 -31 -4 -47 -10 -47 -19 0 -12 47 -14 260 -14 224 0 260 2 260
15 0 10 -11 15 -35 15 -46 0 -80 17 -94 47 -7 15 -11 93 -11 203 l0 180 34 0
c32 0 39 -8 197 -230 l163 -230 348 0 c303 0 348 2 348 15 0 11 -12 15 -44 15
-33 0 -52 6 -73 24 l-28 24 -3 206 -3 206 44 0 c28 0 63 -10 98 -27 60 -31 93
-81 107 -163 4 -24 13 -45 20 -48 9 -3 12 56 12 262 0 230 -2 266 -15 266 -9
0 -15 -9 -15 -24 0 -105 -94 -195 -202 -196 l-48 0 0 195 0 195 113 0 c133 0
201 -17 253 -62 42 -38 54 -59 69 -122 6 -28 17 -52 23 -54 9 -3 12 30 12 123
0 96 3 126 12 123 24 -8 29 -105 26 -490 -3 -382 -3 -388 -25 -409 -14 -15
-38 -23 -72 -27 -34 -3 -51 -9 -51 -18 0 -12 111 -14 685 -14 602 0 685 2 685
15 0 10 -11 15 -35 15 -46 0 -80 17 -94 47 -7 15 -11 93 -11 203 l0 180 34 0
c32 0 39 -8 197 -230 l163 -230 158 0 c123 0 158 3 158 13 0 7 -16 19 -35 26
-22 8 -50 32 -78 69 -71 92 -257 354 -257 362 0 4 17 12 38 18 147 44 218 223
147 368 -32 65 -86 109 -168 138 -62 21 -69 21 -1194 24 -1014 2 -1133 1
-1133 -13 0 -11 11 -15 41 -15 31 0 47 -6 70 -29 l29 -29 0 -419 c0 -582 13
-572 -254 -199 -58 82 -106 152 -106 156 0 4 17 12 38 18 147 44 218 223 147
368 -32 66 -86 110 -168 137 -58 20 -89 21 -519 25 -395 3 -458 2 -458 -11 0
-10 15 -16 46 -20 32 -3 55 -13 73 -31 l26 -26 3 -298 c2 -188 -1 -322 -8
-364 -22 -130 -101 -206 -224 -215 -73 -6 -123 7 -168 45 -61 51 -62 62 -66
447 -2 230 0 362 7 386 12 41 43 59 101 59 29 0 40 4 40 15 0 13 -35 15 -255
15 -163 0 -255 4 -255 10 0 20 -15 9 -30 -23 -20 -43 -42 -44 -129 -7 -79 34
-186 47 -247 31z m3973 -76 l23 -26 0 -419 0 -419 -22 -25 c-13 -14 -35 -28
-50 -32 -34 -8 -34 -6 -9 164 21 142 12 156 -36 54 -39 -83 -90 -137 -162
-171 -46 -21 -74 -26 -163 -29 -104 -4 -107 -3 -132 21 l-26 26 0 196 0 195
32 0 c56 0 112 -35 140 -88 14 -26 29 -63 33 -82 11 -56 16 -70 26 -70 5 0 9
108 9 265 0 167 -4 265 -10 265 -5 0 -12 -12 -15 -27 -31 -151 -83 -213 -179
-213 l-36 0 0 205 0 205 108 0 c191 0 271 -44 310 -172 32 -104 42 -87 42 72
l0 143 47 -6 c35 -4 53 -12 70 -32z m-2094 4 c57 -16 104 -63 122 -122 29 -96
16 -201 -32 -257 -39 -47 -78 -62 -175 -68 l-88 -5 0 232 0 231 68 0 c37 0 84
-5 105 -11z m2530 0 c57 -16 104 -63 122 -122 29 -96 16 -201 -32 -257 -39
-47 -78 -62 -175 -68 l-88 -5 0 232 0 231 68 0 c37 0 84 -5 105 -11z"/>
<path d="M11322 5378 c3 -35 22 -48 32 -22 9 24 -2 54 -20 54 -11 0 -14 -9
-12 -32z"/>
<path d="M12790 3418 c-177 -51 -238 -293 -109 -433 53 -58 112 -80 209 -79
85 0 134 20 186 76 99 105 98 274 -1 374 -66 65 -184 91 -285 62z m149 -33
c49 -25 73 -91 75 -203 1 -122 -15 -182 -61 -222 -49 -43 -103 -42 -148 3 -42
42 -55 90 -55 202 0 112 13 160 55 202 37 37 85 44 134 18z"/>
<path d="M14903 3409 c-30 -15 -48 -33 -62 -63 -26 -53 -26 -69 -1 -120 20
-42 68 -80 167 -129 85 -43 106 -95 57 -144 -22 -22 -32 -25 -74 -21 -74 7
-114 42 -152 133 -12 28 -13 24 -16 -57 -1 -49 -6 -88 -10 -88 -28 0 -32 31
-32 246 0 236 0 238 50 247 14 2 -60 4 -165 5 -132 0 -180 -3 -158 -9 50 -14
49 -37 -3 -156 -25 -60 -53 -125 -62 -145 -8 -21 -18 -38 -21 -38 -11 1 -133
299 -129 317 2 10 16 20 33 24 17 4 -26 7 -95 8 -98 0 -121 -2 -105 -11 28
-16 24 -7 137 -270 56 -131 104 -238 108 -238 3 0 52 103 109 230 57 126 110
238 118 250 17 24 48 26 57 4 3 -9 6 -109 6 -224 0 -224 -3 -237 -53 -242 -12
-1 32 -4 98 -8 125 -5 148 -4 140 10 -10 17 35 21 63 6 76 -39 167 -28 220 27
62 64 62 145 0 206 -17 17 -67 49 -111 72 -43 23 -88 50 -98 60 -27 27 -24 64
9 89 58 47 163 0 194 -87 19 -52 25 -39 20 42 -4 63 -2 75 11 75 9 0 23 -7 31
-16 14 -13 16 -48 16 -227 0 -117 -4 -218 -9 -225 -4 -7 -21 -17 -37 -22 -20
-5 14 -8 106 -8 74 0 124 3 110 5 -50 9 -50 11 -50 247 0 237 2 244 50 248 14
1 -33 5 -105 8 -120 5 -131 4 -138 -14 -8 -19 -11 -19 -82 8 -55 21 -93 20
-142 -5z"/>
<path d="M15530 3418 c-177 -51 -238 -293 -109 -433 53 -58 112 -80 209 -79
85 0 134 20 186 76 99 105 98 274 -1 374 -66 65 -184 91 -285 62z m149 -33
c49 -25 73 -91 75 -203 1 -122 -15 -182 -61 -222 -49 -43 -103 -42 -148 3 -42
42 -55 90 -55 202 0 112 13 160 55 202 37 37 85 44 134 18z"/>
<path d="M16710 3418 c-177 -51 -238 -293 -109 -433 53 -58 112 -80 209 -79
85 0 134 20 186 76 99 105 98 274 -1 374 -66 65 -184 91 -285 62z m149 -33
c49 -25 73 -91 75 -203 1 -122 -15 -182 -61 -222 -49 -43 -103 -42 -148 3 -42
42 -55 90 -55 202 0 112 13 160 55 202 37 37 85 44 134 18z"/>
<path d="M19115 3421 c-133 -33 -227 -163 -212 -295 13 -106 -49 -177 -160
-184 -88 -6 -93 0 -93 114 0 91 1 94 23 94 34 -1 56 -23 77 -77 l19 -48 0 140
0 140 -19 -50 c-22 -55 -42 -75 -77 -75 -23 0 -23 2 -23 105 l0 105 63 0 c78
0 121 -24 147 -83 l19 -42 0 78 1 77 -415 0 -415 0 0 -72 0 -73 19 41 c24 53
55 74 108 74 l43 0 0 -213 c0 -233 -4 -252 -58 -260 -15 -2 36 -4 113 -4 77 0
129 2 115 4 -50 9 -50 11 -50 249 l0 224 38 0 c48 0 79 -22 103 -74 l19 -41 0
63 c0 59 11 80 24 46 9 -24 7 -427 -3 -442 -4 -7 -21 -17 -37 -22 -19 -5 50
-9 192 -9 l222 -1 7 70 c4 39 10 70 14 70 3 0 15 -16 25 -35 43 -80 168 -127
284 -107 72 12 142 53 142 84 0 18 -3 17 -32 -8 -83 -70 -191 -73 -250 -7 -48
53 -67 228 -34 308 45 107 140 144 232 90 32 -19 49 -39 66 -76 l23 -50 5 83
c5 78 6 81 23 64 15 -15 17 -41 17 -229 0 -117 -4 -218 -9 -225 -4 -7 -21 -17
-37 -22 -20 -6 13 -8 106 -9 117 0 130 2 100 12 l-35 12 -3 113 -3 112 91 0
90 0 0 -109 c0 -115 -4 -125 -50 -134 -14 -2 36 -5 110 -5 92 0 126 3 106 8
-16 5 -33 15 -37 22 -5 7 -9 108 -9 223 0 116 4 216 9 223 4 7 21 17 37 22 20
5 -14 8 -106 8 -74 0 -124 -3 -110 -5 46 -9 50 -19 50 -124 l0 -99 -90 0 -90
0 0 91 c0 103 9 128 48 131 15 1 -27 4 -93 8 -126 5 -148 4 -139 -11 12 -19
-26 -19 -84 0 -63 22 -104 24 -157 12z"/>
<path d="M12135 3410 c29 -11 33 -18 119 -176 72 -133 76 -143 76 -205 0 -77
-16 -106 -63 -112 -17 -2 36 -4 118 -4 83 0 137 2 120 4 -50 8 -55 18 -55 116
l0 90 61 106 c76 130 105 170 133 181 14 6 -7 9 -64 8 -47 0 -76 -3 -65 -5 26
-7 45 -22 45 -37 0 -7 -29 -60 -64 -120 l-63 -108 -35 64 c-94 169 -101 192
-56 201 13 2 -33 5 -102 5 -75 0 -117 -3 -105 -8z"/>
<path d="M13127 3413 c12 -2 26 -10 31 -16 5 -7 12 -95 14 -197 5 -206 12
-232 70 -268 75 -47 209 -37 267 20 43 42 51 81 51 259 0 140 2 159 19 180 19
23 20 23 38 6 16 -16 18 -40 21 -220 3 -224 -2 -247 -53 -258 -17 -4 33 -6
110 -6 77 0 128 2 113 4 -45 7 -58 37 -58 135 0 125 15 121 121 -27 l83 -115
78 0 c80 0 96 8 55 27 -13 6 -55 55 -94 110 l-71 98 33 17 c73 39 97 117 55
185 -38 62 -59 67 -320 69 -129 1 -225 0 -213 -2 46 -10 53 -37 53 -204 0 -85
-5 -171 -10 -191 -15 -53 -50 -81 -109 -87 -46 -4 -53 -2 -81 26 l-30 30 0
200 c0 212 1 216 50 225 14 2 -36 4 -110 4 -74 0 -125 -2 -113 -4z m754 -52
c25 -25 29 -37 29 -81 0 -44 -4 -56 -29 -81 -25 -24 -37 -29 -80 -29 l-51 0 0
110 0 110 51 0 c43 0 55 -5 80 -29z"/>
<path d="M15860 3409 c56 -22 60 -38 60 -241 0 -103 -4 -198 -10 -212 -6 -16
-21 -29 -42 -35 -27 -7 -14 -9 62 -9 76 0 89 2 62 9 -21 6 -36 19 -43 36 -5
14 -8 101 -7 196 l3 171 168 -207 c92 -113 172 -209 177 -212 6 -4 10 76 10
224 0 126 3 237 6 246 4 10 21 23 38 31 29 12 25 13 -59 12 -49 0 -81 -3 -70
-5 50 -12 55 -27 55 -171 l0 -134 -125 156 -125 156 -93 -1 c-71 0 -86 -3 -67
-10z"/>
<path d="M17037 3413 c12 -2 26 -10 31 -16 5 -7 12 -95 14 -197 5 -206 12
-232 70 -268 75 -47 209 -37 267 20 43 42 51 81 51 259 0 137 2 160 18 180 23
27 48 21 62 -16 6 -15 10 -110 10 -213 0 -207 -6 -233 -55 -243 -17 -4 33 -6
110 -6 77 0 128 2 113 4 -45 7 -58 37 -58 135 0 125 15 121 121 -27 l83 -115
78 0 c80 0 96 8 55 27 -13 6 -55 55 -94 110 l-71 98 33 17 c73 39 97 117 55
185 -38 63 -58 67 -325 69 -132 1 -230 0 -218 -3 46 -9 53 -36 53 -203 0 -85
-5 -171 -10 -191 -15 -53 -50 -81 -109 -87 -46 -4 -53 -2 -81 26 l-30 30 0
200 c0 212 1 216 50 225 14 2 -36 4 -110 4 -74 0 -125 -2 -113 -4z m764 -52
c25 -25 29 -37 29 -81 0 -44 -4 -56 -29 -81 -25 -24 -37 -29 -80 -29 l-51 0 0
110 0 110 51 0 c43 0 55 -5 80 -29z"/>
<path d="M16342 3014 c-47 -33 -16 -111 40 -100 23 5 28 2 28 -15 0 -30 -26
-74 -57 -97 -26 -19 -26 -21 -5 -15 38 9 89 65 101 110 14 53 6 88 -26 113
-31 24 -51 25 -81 4z"/>
</g>
</svg>
